<?xml version="1.0" standalone="no"?>
<!DOCTYPE svg PUBLIC "-//W3C//DTD SVG 20010904//EN"
 "http://www.w3.org/TR/2001/REC-SVG-20010904/DTD/svg10.dtd">
<svg version="1.0" xmlns="http://www.w3.org/2000/svg"
 width="400.000000pt" height="400.000000pt" viewBox="0 0 400.000000 400.000000"
 preserveAspectRatio="xMidYMid meet">
<metadata>
Created by potrace 1.16, written by Peter Selinger 2001-2019
</metadata>
<g transform="translate(0.000000,400.000000) scale(0.100000,-0.100000)"
fill="#000000" stroke="none">
<path d="M0 2530 l0 -1470 25 0 c28 0 75 -20 75 -32 0 -4 14 -8 30 -8 17 0 30
-4 30 -10 0 -5 14 -10 30 -10 23 0 30 4 30 20 0 26 12 26 30 0 20 -28 30 -25
30 10 0 23 4 30 20 30 13 0 20 -7 20 -20 0 -13 7 -20 20 -20 11 0 20 -4 20
-10 0 -5 5 -10 10 -10 6 0 10 9 10 20 0 11 2 20 5 20 13 0 55 -50 55 -66 0
-12 6 -15 23 -12 18 4 23 0 23 -16 -1 -16 6 -22 27 -24 25 -3 27 -1 27 37 0
22 -5 42 -13 44 -6 3 -2 6 11 6 20 1 22 -4 22 -44 0 -38 3 -45 20 -45 14 0 20
7 20 21 0 14 5 19 18 17 9 -2 22 5 29 17 11 17 12 18 13 3 0 -13 8 -18 30 -18
21 0 30 -5 30 -16 0 -15 23 -44 34 -44 3 0 6 7 6 15 0 22 16 18 44 -10 31 -31
36 -31 36 0 0 14 5 25 10 25 6 0 10 -11 10 -25 0 -14 5 -25 10 -25 6 0 10 11
10 25 0 23 4 25 40 25 36 0 40 -2 40 -25 0 -25 1 -25 80 -25 64 0 80 -3 80
-15 0 -11 11 -15 40 -15 22 0 40 -4 40 -10 0 -5 18 -10 40 -10 29 0 40 -4 40
-15 0 -11 -11 -15 -40 -15 -29 0 -40 -4 -40 -15 0 -11 11 -15 40 -15 29 0 40
4 40 15 0 12 16 15 80 15 64 0 80 -3 80 -15 0 -11 12 -15 50 -15 28 0 50 5 50
10 0 6 11 22 24 35 23 23 24 23 39 4 17 -20 12 -23 -25 -20 -10 1 -18 -4 -18
-13 0 -9 9 -16 20 -16 11 0 20 -4 20 -10 0 -5 4 -10 9 -10 5 0 7 9 4 20 -4 14
0 20 11 20 9 0 16 -8 16 -20 0 -11 5 -20 10 -20 6 0 10 9 10 19 0 11 8 22 18
25 23 8 156 14 320 17 112 2 122 3 122 20 0 11 5 19 10 19 6 0 10 -9 10 -20 0
-20 16 -28 22 -11 2 6 47 11 101 12 73 2 97 6 97 16 0 18 10 16 26 -4 12 -17
14 -16 15 7 1 14 1 37 0 53 -1 15 3 27 8 27 6 0 11 -16 11 -35 0 -19 5 -35 10
-35 6 0 10 8 10 19 0 24 31 52 37 34 7 -19 83 -17 83 2 0 11 11 15 40 15 34 0
40 3 40 20 0 23 26 38 41 23 7 -7 5 -16 -6 -27 -15 -15 -15 -16 1 -16 9 0 23
8 30 18 13 16 13 16 14 -2 0 -12 5 -16 16 -12 9 3 18 6 20 6 3 0 3 3 1 8 -3 4
29 8 71 10 47 1 79 7 84 15 6 9 8 9 8 0 0 -9 16 -12 58 -9 70 5 72 6 47 15
-12 5 -25 4 -33 -2 -9 -7 -16 -5 -25 6 -9 11 -36 17 -97 20 -139 9 -205 20
-196 35 2 4 0 14 -6 22 -8 12 -9 12 -4 -3 4 -11 2 -16 -5 -12 -5 4 -9 14 -8
23 1 10 -1 29 -6 45 -5 20 -11 25 -19 18 -9 -7 -12 -3 -11 17 1 15 -1 32 -4
37 -3 6 -6 15 -7 20 -1 6 -38 91 -81 190 -44 99 -76 182 -71 183 9 4 99 -58
223 -154 82 -64 230 -204 299 -284 21 -25 36 -39 32 -33 -5 9 -2 11 8 7 9 -3
13 -10 11 -15 -3 -5 1 -22 10 -39 18 -35 12 -53 -16 -45 -10 4 -19 2 -19 -3 0
-5 9 -12 20 -15 11 -3 20 -1 20 4 0 5 36 9 80 9 64 0 80 3 80 15 0 11 11 15
36 15 26 0 37 5 41 18 4 18 25 20 281 28 152 5 314 8 360 6 l82 -2 0 1455 0
1455 -2000 0 -2000 0 0 -1470z m2145 475 c69 -154 156 -344 192 -423 36 -78
64 -144 61 -147 -2 -3 -65 15 -138 40 -150 50 -301 86 -465 110 -60 9 -110 17
-111 18 -1 1 31 72 70 157 40 85 112 242 161 348 49 106 92 189 96 185 4 -5
64 -134 134 -288z m-350 -499 c184 -29 176 -27 169 -48 -3 -11 -25 -61 -49
-113 l-44 -93 -38 9 c-21 5 -92 16 -158 25 -66 8 -122 17 -124 20 -2 2 18 51
44 109 56 121 43 115 200 91z m386 -89 c57 -18 143 -49 191 -67 l87 -35 74
-165 c41 -91 74 -166 72 -168 -2 -2 -56 23 -121 56 -66 33 -157 74 -204 92
-47 18 -90 38 -97 44 -12 12 -123 251 -123 267 0 13 8 12 121 -24z m-467 -216
c65 -11 119 -21 121 -23 1 -2 -18 -49 -44 -106 -43 -96 -47 -102 -71 -96 -14
3 -85 16 -158 29 -74 13 -135 25 -137 27 -2 2 15 45 38 96 l41 92 45 0 c26 0
99 -9 165 -19z m659 -197 c67 -30 162 -78 210 -107 l89 -52 60 -130 c32 -71
68 -150 80 -175 11 -25 35 -77 54 -117 19 -39 34 -77 34 -84 0 -6 -21 8 -47
32 -27 24 -70 62 -98 84 -27 22 -59 48 -70 59 -20 18 -280 192 -296 198 -6 2
-159 333 -159 345 0 10 33 -3 143 -53z m-853 -69 c123 -20 180 -35 180 -47 0
-5 -27 -69 -61 -141 -110 -236 -129 -279 -129 -282 0 -2 -13 -33 -30 -69 -16
-36 -44 -96 -60 -132 -17 -36 -28 -70 -24 -75 3 -5 1 -9 -5 -9 -6 0 -7 -7 -4
-17 4 -10 2 -14 -4 -10 -6 4 -17 -11 -26 -33 -8 -22 -12 -38 -7 -35 4 3 6 -4
3 -16 -4 -15 -8 -17 -14 -8 -5 9 -10 5 -14 -13 -6 -23 -12 -26 -78 -31 -40 -2
-109 -4 -155 -3 -63 1 -81 -2 -78 -11 3 -7 1 -13 -4 -13 -6 0 -10 7 -10 16 0
11 -6 14 -20 9 -19 -6 -21 -3 -17 37 2 24 8 42 14 41 6 -1 17 16 26 38 8 21
11 37 6 34 -5 -3 -6 1 -3 9 3 9 9 14 14 11 10 -6 31 44 24 58 -4 7 -4 9 1 5 9
-9 57 90 50 102 -3 5 0 12 6 16 12 7 85 157 209 429 67 147 72 155 94 155 11
0 64 -7 116 -15z"/>
</g>
</svg>
